<?xml version="1.0" encoding="UTF-8"?>
<svg id="Layer_1" xmlns="http://www.w3.org/2000/svg" version="1.1" viewBox="0 0 1500 338">
  <!-- Generator: Adobe Illustrator 29.2.1, SVG Export Plug-In . SVG Version: 2.1.0 Build 116)  -->
  <defs>
    <style>
      .st0 {
        fill: #e12228;
      }

      .st1 {
        fill: #181718;
      }
    </style>
  </defs>
  <g>
    <path class="st1" d="M260.89,108.715v174.431h53.82V108.715h-53.82Z"/>
    <path class="st1" d="M465.118,233.344c-5.9,4.52-13.853,6.947-21.804,6.947-14.522,0-23.143-8.663-23.143-24.566v-66.667h46.328v-40.343h-46.328v-53.861h-53.903v53.861h-28.667v40.343h28.667v67.336c0,44.277,25.528,66.751,69.429,66.751,16.614,0,32.853-3.808,43.942-11.76l-14.522-38.041Z"/>
    <path class="st0" d="M811.176,102.48c-28.039,0-56.414,7.491-75.664,21.176l18.288,35.572c12.723-10.128,31.932-16.322,50.555-16.322,27.37,0,40.427,12.723,40.427,34.568h-40.427c-53.484,0-75.372,21.511-75.372,52.522,0,30.3,24.482,53.15,65.579,53.15,25.738,0,44.026-8.495,53.484-24.482v21.887h47.584v-100.147c0-53.15-30.97-77.925-84.454-77.925ZM844.781,225.1c-5.859,15.987-20.548,23.813-37.497,23.813-17.954,0-28.709-8.495-28.709-21.218,0-11.718,7.491-20.548,31.304-20.548h34.903v17.954Z"/>
    <path class="st0" d="M977.488,157.261c0-9.124,9.793-16.322,32.601-16.322,15.987,0,33.271,3.264,50.555,13.057l16.949-36.2c-16.615-9.793-43.357-15.317-67.505-15.317-51.182,0-81.189,23.478-81.189,56.749,0,70.099,105.964,40.762,105.964,69.471,0,9.751-8.788,15.945-32.266,15.945-21.553,0-45.323-6.821-60.975-16.949l-16.991,36.535c16.321,10.755,46.328,18.916,75.999,18.916,52.522,0,82.821-23.143,82.821-55.786,0-69.136-105.964-40.092-105.964-70.099Z"/>
    <path class="st0" d="M1286.634,193.461c0-56.414-39.799-90.982-91.317-90.982-53.484,0-93.618,37.832-93.618,90.312,0,52.187,39.464,90.354,100.147,90.354,31.597,0,56.079-9.793,72.401-28.374l-27.077-29.337c-12.053,11.383-25.445,16.949-44.026,16.949-26.743,0-45.324-13.392-50.22-35.238h132.706c.335-4.227,1.004-9.793,1.004-13.685ZM1152.253,177.475c3.6-22.515,20.214-36.535,43.399-36.535,22.808,0,39.464,14.355,43.022,36.535h-86.421Z"/>
    <path class="st0" d="M1369.12,130.854v-23.143h-48.588v175.435h50.848v-82.821c0-33.606,18.581-48.923,46.662-48.923,3.892,0,7.157.335,11.384.628v-46.956c-27.077,0-47.919,8.83-60.306,25.779Z"/>
    <rect class="st1" x="260.91" y="54.856" width="53.816" height="36.148"/>
    <g>
      <rect class="st0" x="504.956" y="229.299" width="13.454" height="13.454"/>
      <path class="st0" d="M656.959,209.783c29.671-12.723,46.956-37.833,46.956-72.108,0-51.182-38.168-82.821-99.142-82.821h-99.813v160.997h13.434v13.434h13.476v-26.91h-13.476v-13.434h13.476v13.434h13.434v26.91h-13.434v13.476h26.91v-23.227h48.63l44.026,63.612h56.749l-51.224-73.363ZM531.869,150.523h-13.476v-13.476h13.476v13.476ZM601.842,177.475h-43.064v-79.557h43.064c32.308,0,48.588,14.647,48.588,39.757,0,24.817-16.28,39.799-48.588,39.799Z"/>
      <rect class="st0" x="504.96" y="256.194" width="13.434" height="13.476"/>
      <rect class="st0" x="531.869" y="256.194" width="13.434" height="13.476"/>
      <rect class="st0" x="545.345" y="269.67" width="13.434" height="13.476"/>
    </g>
    <path class="st1" d="M184.138,164.417c18.581-9.751,30.341-27.37,30.341-50.22,0-35.531-29.337-59.343-86.421-59.343H56.913v13.015h-26.951v26.91h-13.434v13.476h13.434v13.434h13.476v13.476h13.434v13.434h-13.434v-13.434h-13.476v-13.476h-13.434v26.91h13.434v13.476h-13.434v121.072h118.059c60.013,0,91.317-22.85,91.317-62.273,0-28.709-16.322-48.295-41.766-56.456ZM56.872,200.492h-13.434v-13.476h13.434v13.476ZM43.438,94.779v-13.434h13.434v13.434h-13.434ZM56.872,108.255h12.137v-13.601h52.521c25.78,0,39.799,8.788,39.799,26.742s-14.02,27.077-39.799,27.077h-52.521v-26.784h-12.137v-13.434ZM130.654,243.346h-61.645v-56.414h61.645c27.411,0,42.059,9.123,42.059,28.374,0,19.586-14.647,28.039-42.059,28.039ZM16.529,54.854v13.015h13.434v-13.015h-13.434Z"/>
  </g>
  <g>
    <path class="st0" d="M1480.974,112.785c-1.665-2.912-3.953-5.201-6.866-6.866-2.913-1.664-6.161-2.497-9.743-2.497s-6.839.851-9.771,2.551c-2.931,1.701-5.237,4.017-6.92,6.948-1.683,2.931-2.524,6.152-2.524,9.661s.841,6.731,2.524,9.662c1.683,2.931,3.98,5.247,6.893,6.948,2.913,1.701,6.142,2.551,9.689,2.551s6.785-.85,9.715-2.551c2.931-1.701,5.247-4.025,6.948-6.975,1.7-2.949,2.551-6.196,2.551-9.743s-.833-6.775-2.497-9.689ZM1478.722,130.996c-1.466,2.57-3.466,4.596-5.998,6.079-2.534,1.484-5.356,2.225-8.468,2.225-3.076,0-5.881-.741-8.414-2.225-2.533-1.484-4.524-3.501-5.97-6.052-1.448-2.551-2.171-5.364-2.171-8.44s.723-5.889,2.171-8.441c1.447-2.551,3.446-4.568,5.998-6.052,2.551-1.483,5.381-2.225,8.494-2.225,3.148,0,5.979.724,8.494,2.171,2.515,1.448,4.487,3.438,5.917,5.971,1.429,2.533,2.145,5.356,2.145,8.467s-.733,5.953-2.198,8.522Z"/>
    <path class="st0" d="M1470.001,132.729l-4.275-6.594h-5.857v6.594h-3.19v-20.292h8.086c1.266,0,2.413.158,3.411.47.992.31,1.864.781,2.592,1.399.725.617,1.276,1.348,1.638,2.172.363.826.547,1.771.547,2.809,0,1.505-.372,2.81-1.106,3.878-.733,1.065-1.781,1.843-3.117,2.31l-.188.066,4.639,7.189h-3.181ZM1459.816,123.564h4.691c1.677,0,3.001-.375,3.935-1.116.945-.749,1.425-1.813,1.425-3.162s-.48-2.405-1.426-3.138c-.935-.723-2.258-1.089-3.933-1.089h-4.691v8.504Z"/>
  </g>
</svg>